<mxfile host="Electron" modified="2024-03-21T09:20:48.754Z" agent="Mozilla/5.0 (Windows NT 10.0; Win64; x64) AppleWebKit/537.36 (KHTML, like Gecko) draw.io/24.0.4 Chrome/120.0.6099.109 Electron/28.1.0 Safari/537.36" etag="CNy_jVSUfNVrXip-YyMO" version="24.0.4" type="device">
  <diagram name="Pagina-1" id="HLmd3f18k7zINe_X61yD">
    <mxGraphModel dx="880" dy="532" grid="1" gridSize="10" guides="1" tooltips="1" connect="1" arrows="1" fold="1" page="1" pageScale="1" pageWidth="827" pageHeight="1169" math="0" shadow="0">
      <root>
        <mxCell id="0" />
        <mxCell id="1" parent="0" />
        <mxCell id="tPCRqCIw0vKtBCFjHwRm-11" style="edgeStyle=orthogonalEdgeStyle;rounded=0;orthogonalLoop=1;jettySize=auto;html=1;entryX=0;entryY=0.5;entryDx=0;entryDy=0;" parent="1" source="tPCRqCIw0vKtBCFjHwRm-1" target="tPCRqCIw0vKtBCFjHwRm-5" edge="1">
          <mxGeometry relative="1" as="geometry" />
        </mxCell>
        <mxCell id="tPCRqCIw0vKtBCFjHwRm-12" style="edgeStyle=orthogonalEdgeStyle;rounded=0;orthogonalLoop=1;jettySize=auto;html=1;entryX=0;entryY=0.5;entryDx=0;entryDy=0;" parent="1" source="tPCRqCIw0vKtBCFjHwRm-1" target="tPCRqCIw0vKtBCFjHwRm-7" edge="1">
          <mxGeometry relative="1" as="geometry" />
        </mxCell>
        <mxCell id="tPCRqCIw0vKtBCFjHwRm-13" style="edgeStyle=orthogonalEdgeStyle;rounded=0;orthogonalLoop=1;jettySize=auto;html=1;entryX=0;entryY=0.5;entryDx=0;entryDy=0;" parent="1" source="tPCRqCIw0vKtBCFjHwRm-1" target="tPCRqCIw0vKtBCFjHwRm-9" edge="1">
          <mxGeometry relative="1" as="geometry" />
        </mxCell>
        <mxCell id="tPCRqCIw0vKtBCFjHwRm-47" style="edgeStyle=orthogonalEdgeStyle;rounded=0;orthogonalLoop=1;jettySize=auto;html=1;entryX=1;entryY=0.5;entryDx=0;entryDy=0;endArrow=doubleBlock;endFill=1;" parent="1" source="tPCRqCIw0vKtBCFjHwRm-1" target="tPCRqCIw0vKtBCFjHwRm-45" edge="1">
          <mxGeometry relative="1" as="geometry" />
        </mxCell>
        <mxCell id="sJ6jyUjZdtRYL7ovLm-a-6" style="edgeStyle=orthogonalEdgeStyle;rounded=0;orthogonalLoop=1;jettySize=auto;html=1;entryX=0;entryY=0.5;entryDx=0;entryDy=0;" edge="1" parent="1" source="tPCRqCIw0vKtBCFjHwRm-1" target="sJ6jyUjZdtRYL7ovLm-a-4">
          <mxGeometry relative="1" as="geometry" />
        </mxCell>
        <mxCell id="tPCRqCIw0vKtBCFjHwRm-1" value="Utente" style="rounded=0;whiteSpace=wrap;html=1;" parent="1" vertex="1">
          <mxGeometry x="580" y="80" width="120" height="60" as="geometry" />
        </mxCell>
        <mxCell id="tPCRqCIw0vKtBCFjHwRm-30" style="edgeStyle=orthogonalEdgeStyle;rounded=0;orthogonalLoop=1;jettySize=auto;html=1;entryX=0;entryY=0.5;entryDx=0;entryDy=0;" parent="1" source="tPCRqCIw0vKtBCFjHwRm-2" target="tPCRqCIw0vKtBCFjHwRm-25" edge="1">
          <mxGeometry relative="1" as="geometry" />
        </mxCell>
        <mxCell id="tPCRqCIw0vKtBCFjHwRm-31" style="edgeStyle=orthogonalEdgeStyle;rounded=0;orthogonalLoop=1;jettySize=auto;html=1;entryX=0;entryY=0.5;entryDx=0;entryDy=0;" parent="1" source="tPCRqCIw0vKtBCFjHwRm-2" target="tPCRqCIw0vKtBCFjHwRm-27" edge="1">
          <mxGeometry relative="1" as="geometry" />
        </mxCell>
        <mxCell id="tPCRqCIw0vKtBCFjHwRm-42" style="edgeStyle=orthogonalEdgeStyle;rounded=0;orthogonalLoop=1;jettySize=auto;html=1;entryX=1;entryY=0.5;entryDx=0;entryDy=0;endArrow=classic;endFill=1;" parent="1" source="tPCRqCIw0vKtBCFjHwRm-2" target="tPCRqCIw0vKtBCFjHwRm-41" edge="1">
          <mxGeometry relative="1" as="geometry" />
        </mxCell>
        <mxCell id="tPCRqCIw0vKtBCFjHwRm-46" value="" style="edgeStyle=orthogonalEdgeStyle;rounded=0;orthogonalLoop=1;jettySize=auto;html=1;" parent="1" source="tPCRqCIw0vKtBCFjHwRm-2" target="tPCRqCIw0vKtBCFjHwRm-45" edge="1">
          <mxGeometry relative="1" as="geometry" />
        </mxCell>
        <mxCell id="sJ6jyUjZdtRYL7ovLm-a-16" style="edgeStyle=orthogonalEdgeStyle;rounded=0;orthogonalLoop=1;jettySize=auto;html=1;entryX=0;entryY=0.5;entryDx=0;entryDy=0;" edge="1" parent="1" source="tPCRqCIw0vKtBCFjHwRm-2" target="sJ6jyUjZdtRYL7ovLm-a-14">
          <mxGeometry relative="1" as="geometry" />
        </mxCell>
        <mxCell id="tPCRqCIw0vKtBCFjHwRm-2" value="Prestito" style="rounded=0;whiteSpace=wrap;html=1;" parent="1" vertex="1">
          <mxGeometry x="300" y="300" width="120" height="60" as="geometry" />
        </mxCell>
        <mxCell id="tPCRqCIw0vKtBCFjHwRm-20" style="edgeStyle=orthogonalEdgeStyle;rounded=0;orthogonalLoop=1;jettySize=auto;html=1;entryX=0;entryY=0.5;entryDx=0;entryDy=0;" parent="1" source="tPCRqCIw0vKtBCFjHwRm-3" target="tPCRqCIw0vKtBCFjHwRm-14" edge="1">
          <mxGeometry relative="1" as="geometry" />
        </mxCell>
        <mxCell id="tPCRqCIw0vKtBCFjHwRm-21" style="edgeStyle=orthogonalEdgeStyle;rounded=0;orthogonalLoop=1;jettySize=auto;html=1;entryX=0;entryY=0.5;entryDx=0;entryDy=0;" parent="1" source="tPCRqCIw0vKtBCFjHwRm-3" target="tPCRqCIw0vKtBCFjHwRm-16" edge="1">
          <mxGeometry relative="1" as="geometry" />
        </mxCell>
        <mxCell id="tPCRqCIw0vKtBCFjHwRm-22" style="edgeStyle=orthogonalEdgeStyle;rounded=0;orthogonalLoop=1;jettySize=auto;html=1;entryX=0;entryY=0.5;entryDx=0;entryDy=0;" parent="1" source="tPCRqCIw0vKtBCFjHwRm-3" target="tPCRqCIw0vKtBCFjHwRm-18" edge="1">
          <mxGeometry relative="1" as="geometry" />
        </mxCell>
        <mxCell id="tPCRqCIw0vKtBCFjHwRm-40" style="edgeStyle=orthogonalEdgeStyle;rounded=0;orthogonalLoop=1;jettySize=auto;html=1;endArrow=doubleBlock;endFill=1;" parent="1" source="tPCRqCIw0vKtBCFjHwRm-3" target="tPCRqCIw0vKtBCFjHwRm-41" edge="1">
          <mxGeometry relative="1" as="geometry">
            <mxPoint x="99.99999999999989" y="310" as="targetPoint" />
            <Array as="points">
              <mxPoint x="100" y="190" />
              <mxPoint x="100" y="190" />
            </Array>
          </mxGeometry>
        </mxCell>
        <mxCell id="sJ6jyUjZdtRYL7ovLm-a-13" style="edgeStyle=orthogonalEdgeStyle;rounded=0;orthogonalLoop=1;jettySize=auto;html=1;entryX=0;entryY=0.5;entryDx=0;entryDy=0;exitX=0.417;exitY=1;exitDx=0;exitDy=0;exitPerimeter=0;" edge="1" parent="1" source="tPCRqCIw0vKtBCFjHwRm-3" target="sJ6jyUjZdtRYL7ovLm-a-11">
          <mxGeometry relative="1" as="geometry" />
        </mxCell>
        <mxCell id="tPCRqCIw0vKtBCFjHwRm-3" value="Libro" style="rounded=0;whiteSpace=wrap;html=1;" parent="1" vertex="1">
          <mxGeometry x="80" y="80" width="120" height="60" as="geometry" />
        </mxCell>
        <mxCell id="tPCRqCIw0vKtBCFjHwRm-5" value="" style="ellipse;whiteSpace=wrap;html=1;aspect=fixed;" parent="1" vertex="1">
          <mxGeometry x="680" y="170" width="10" height="10" as="geometry" />
        </mxCell>
        <mxCell id="tPCRqCIw0vKtBCFjHwRm-6" value="Nome" style="text;html=1;align=center;verticalAlign=middle;whiteSpace=wrap;rounded=0;" parent="1" vertex="1">
          <mxGeometry x="690" y="160" width="30" height="30" as="geometry" />
        </mxCell>
        <mxCell id="tPCRqCIw0vKtBCFjHwRm-7" value="" style="ellipse;whiteSpace=wrap;html=1;aspect=fixed;" parent="1" vertex="1">
          <mxGeometry x="680" y="190" width="10" height="10" as="geometry" />
        </mxCell>
        <mxCell id="tPCRqCIw0vKtBCFjHwRm-8" value="Cognome" style="text;html=1;align=center;verticalAlign=middle;whiteSpace=wrap;rounded=0;" parent="1" vertex="1">
          <mxGeometry x="690" y="180" width="50" height="30" as="geometry" />
        </mxCell>
        <mxCell id="tPCRqCIw0vKtBCFjHwRm-9" value="" style="ellipse;whiteSpace=wrap;html=1;aspect=fixed;" parent="1" vertex="1">
          <mxGeometry x="680" y="210" width="10" height="10" as="geometry" />
        </mxCell>
        <mxCell id="tPCRqCIw0vKtBCFjHwRm-10" value="Email" style="text;html=1;align=center;verticalAlign=middle;whiteSpace=wrap;rounded=0;" parent="1" vertex="1">
          <mxGeometry x="690" y="200" width="30" height="30" as="geometry" />
        </mxCell>
        <mxCell id="tPCRqCIw0vKtBCFjHwRm-14" value="" style="ellipse;whiteSpace=wrap;html=1;aspect=fixed;" parent="1" vertex="1">
          <mxGeometry x="160" y="170" width="10" height="10" as="geometry" />
        </mxCell>
        <mxCell id="tPCRqCIw0vKtBCFjHwRm-15" value="Titolo" style="text;html=1;align=center;verticalAlign=middle;whiteSpace=wrap;rounded=0;" parent="1" vertex="1">
          <mxGeometry x="170" y="160" width="30" height="30" as="geometry" />
        </mxCell>
        <mxCell id="tPCRqCIw0vKtBCFjHwRm-16" value="" style="ellipse;whiteSpace=wrap;html=1;aspect=fixed;" parent="1" vertex="1">
          <mxGeometry x="160" y="190" width="10" height="10" as="geometry" />
        </mxCell>
        <mxCell id="tPCRqCIw0vKtBCFjHwRm-17" value="AnnoPubblicazione" style="text;html=1;align=center;verticalAlign=middle;whiteSpace=wrap;rounded=0;" parent="1" vertex="1">
          <mxGeometry x="170" y="180" width="100" height="30" as="geometry" />
        </mxCell>
        <mxCell id="tPCRqCIw0vKtBCFjHwRm-18" value="" style="ellipse;whiteSpace=wrap;html=1;aspect=fixed;" parent="1" vertex="1">
          <mxGeometry x="160" y="210" width="10" height="10" as="geometry" />
        </mxCell>
        <mxCell id="tPCRqCIw0vKtBCFjHwRm-19" value="StatoDisponibilita" style="text;html=1;align=center;verticalAlign=middle;whiteSpace=wrap;rounded=0;" parent="1" vertex="1">
          <mxGeometry x="170" y="200" width="90" height="30" as="geometry" />
        </mxCell>
        <mxCell id="tPCRqCIw0vKtBCFjHwRm-25" value="" style="ellipse;whiteSpace=wrap;html=1;aspect=fixed;" parent="1" vertex="1">
          <mxGeometry x="386" y="390" width="10" height="10" as="geometry" />
        </mxCell>
        <mxCell id="tPCRqCIw0vKtBCFjHwRm-26" value="dataPrestito" style="text;html=1;align=center;verticalAlign=middle;whiteSpace=wrap;rounded=0;" parent="1" vertex="1">
          <mxGeometry x="396" y="380" width="70" height="30" as="geometry" />
        </mxCell>
        <mxCell id="tPCRqCIw0vKtBCFjHwRm-27" value="" style="ellipse;whiteSpace=wrap;html=1;aspect=fixed;" parent="1" vertex="1">
          <mxGeometry x="386" y="410" width="10" height="10" as="geometry" />
        </mxCell>
        <mxCell id="tPCRqCIw0vKtBCFjHwRm-28" value="dataRitorno" style="text;html=1;align=center;verticalAlign=middle;whiteSpace=wrap;rounded=0;" parent="1" vertex="1">
          <mxGeometry x="396" y="400" width="70" height="30" as="geometry" />
        </mxCell>
        <mxCell id="tPCRqCIw0vKtBCFjHwRm-33" value="" style="endArrow=none;html=1;rounded=0;" parent="1" edge="1">
          <mxGeometry width="50" height="50" relative="1" as="geometry">
            <mxPoint x="370" y="430" as="sourcePoint" />
            <mxPoint x="370" y="380" as="targetPoint" />
          </mxGeometry>
        </mxCell>
        <mxCell id="tPCRqCIw0vKtBCFjHwRm-41" value="effettua" style="rhombus;whiteSpace=wrap;html=1;" parent="1" vertex="1">
          <mxGeometry x="120" y="310" width="70" height="40" as="geometry" />
        </mxCell>
        <mxCell id="tPCRqCIw0vKtBCFjHwRm-44" value="" style="endArrow=none;html=1;rounded=0;" parent="1" edge="1">
          <mxGeometry width="50" height="50" relative="1" as="geometry">
            <mxPoint x="120" y="290" as="sourcePoint" />
            <mxPoint x="80" y="290" as="targetPoint" />
          </mxGeometry>
        </mxCell>
        <mxCell id="tPCRqCIw0vKtBCFjHwRm-45" value="effettua" style="rhombus;whiteSpace=wrap;html=1;rounded=0;" parent="1" vertex="1">
          <mxGeometry x="520" y="305" width="80" height="50" as="geometry" />
        </mxCell>
        <mxCell id="tPCRqCIw0vKtBCFjHwRm-49" value="" style="endArrow=none;html=1;rounded=0;" parent="1" edge="1">
          <mxGeometry width="50" height="50" relative="1" as="geometry">
            <mxPoint x="660" y="290" as="sourcePoint" />
            <mxPoint x="620" y="290" as="targetPoint" />
          </mxGeometry>
        </mxCell>
        <mxCell id="sJ6jyUjZdtRYL7ovLm-a-1" value="" style="endArrow=none;html=1;rounded=0;" edge="1" parent="1">
          <mxGeometry width="50" height="50" relative="1" as="geometry">
            <mxPoint x="660" y="225" as="sourcePoint" />
            <mxPoint x="660" y="205" as="targetPoint" />
          </mxGeometry>
        </mxCell>
        <mxCell id="sJ6jyUjZdtRYL7ovLm-a-4" value="" style="ellipse;whiteSpace=wrap;html=1;aspect=fixed;fillColor=#000000;" vertex="1" parent="1">
          <mxGeometry x="680" y="230" width="10" height="10" as="geometry" />
        </mxCell>
        <mxCell id="sJ6jyUjZdtRYL7ovLm-a-5" value="Codice Utente" style="text;html=1;align=center;verticalAlign=middle;whiteSpace=wrap;rounded=0;" vertex="1" parent="1">
          <mxGeometry x="690" y="220" width="40" height="30" as="geometry" />
        </mxCell>
        <mxCell id="sJ6jyUjZdtRYL7ovLm-a-11" value="" style="ellipse;whiteSpace=wrap;html=1;aspect=fixed;fillColor=#000000;" vertex="1" parent="1">
          <mxGeometry x="160" y="230" width="10" height="10" as="geometry" />
        </mxCell>
        <mxCell id="sJ6jyUjZdtRYL7ovLm-a-12" value="ISBN" style="text;html=1;align=center;verticalAlign=middle;whiteSpace=wrap;rounded=0;" vertex="1" parent="1">
          <mxGeometry x="170" y="220" width="30" height="30" as="geometry" />
        </mxCell>
        <mxCell id="sJ6jyUjZdtRYL7ovLm-a-14" value="" style="ellipse;whiteSpace=wrap;html=1;aspect=fixed;fillColor=#000000;" vertex="1" parent="1">
          <mxGeometry x="386" y="430" width="10" height="10" as="geometry" />
        </mxCell>
        <mxCell id="sJ6jyUjZdtRYL7ovLm-a-15" value="Cod. Pres" style="text;html=1;align=center;verticalAlign=middle;whiteSpace=wrap;rounded=0;" vertex="1" parent="1">
          <mxGeometry x="396" y="420" width="64" height="30" as="geometry" />
        </mxCell>
      </root>
    </mxGraphModel>
  </diagram>
</mxfile>
